<svg xmlns="http://www.w3.org/2000/svg" width="91.833" height="72" viewBox="0 0 91.833 72">
  <g id="saving" transform="translate(-5 -31.5)">
    <g id="Group_15" data-name="Group 15" transform="translate(50.917 93.833)">
      <rect id="Rectangle_13" data-name="Rectangle 13" width="43.5" height="9.667" fill="#ffd740"/>
      <rect id="Rectangle_14" data-name="Rectangle 14" width="21.75" height="9.667" fill="#ffe57f"/>
      <rect id="Rectangle_15" data-name="Rectangle 15" width="43.5" height="2.417" transform="translate(0 7.25)" fill="#ffc400"/>
      <rect id="Rectangle_16" data-name="Rectangle 16" width="2.417" height="7.25" transform="translate(2.417)" fill="#fff"/>
      <rect id="Rectangle_17" data-name="Rectangle 17" width="2.417" height="7.25" transform="translate(26.583)" fill="#ffc400"/>
      <rect id="Rectangle_18" data-name="Rectangle 18" width="2.417" height="7.25" transform="translate(31.417)" fill="#ffc400"/>
      <rect id="Rectangle_19" data-name="Rectangle 19" width="2.417" height="7.25" transform="translate(36.25)" fill="#ffc400"/>
      <rect id="Rectangle_20" data-name="Rectangle 20" width="2.417" height="7.25" transform="translate(41.083)" fill="#ffc400"/>
    </g>
    <g id="Group_16" data-name="Group 16" transform="translate(48.5 84.167)">
      <rect id="Rectangle_21" data-name="Rectangle 21" width="43.5" height="9.667" fill="#ffd740"/>
      <rect id="Rectangle_22" data-name="Rectangle 22" width="21.75" height="9.667" fill="#ffe57f"/>
      <rect id="Rectangle_23" data-name="Rectangle 23" width="43.5" height="2.417" transform="translate(0 7.25)" fill="#ffc400"/>
      <rect id="Rectangle_24" data-name="Rectangle 24" width="2.417" height="7.25" transform="translate(2.417)" fill="#fff"/>
      <rect id="Rectangle_25" data-name="Rectangle 25" width="2.417" height="7.25" transform="translate(26.583)" fill="#ffc400"/>
      <rect id="Rectangle_26" data-name="Rectangle 26" width="2.417" height="7.25" transform="translate(31.417)" fill="#ffc400"/>
      <rect id="Rectangle_27" data-name="Rectangle 27" width="2.417" height="7.25" transform="translate(36.25)" fill="#ffc400"/>
      <rect id="Rectangle_28" data-name="Rectangle 28" width="2.417" height="7.25" transform="translate(41.083)" fill="#ffc400"/>
    </g>
    <g id="Group_17" data-name="Group 17" transform="translate(7.417 74.5)">
      <rect id="Rectangle_29" data-name="Rectangle 29" width="43.5" height="9.667" fill="#ffd740"/>
      <rect id="Rectangle_30" data-name="Rectangle 30" width="21.75" height="9.667" fill="#ffe57f"/>
      <rect id="Rectangle_31" data-name="Rectangle 31" width="43.5" height="2.417" transform="translate(0 7.25)" fill="#ffc400"/>
      <rect id="Rectangle_32" data-name="Rectangle 32" width="2.417" height="7.25" transform="translate(2.417)" fill="#fff"/>
      <rect id="Rectangle_33" data-name="Rectangle 33" width="2.417" height="7.25" transform="translate(26.583)" fill="#ffc400"/>
      <rect id="Rectangle_34" data-name="Rectangle 34" width="2.417" height="7.25" transform="translate(31.417)" fill="#ffc400"/>
      <rect id="Rectangle_35" data-name="Rectangle 35" width="2.417" height="7.25" transform="translate(36.25)" fill="#ffc400"/>
      <rect id="Rectangle_36" data-name="Rectangle 36" width="2.417" height="7.25" transform="translate(41.083)" fill="#ffc400"/>
    </g>
    <g id="Group_21" data-name="Group 21" transform="translate(53.333 40.667)">
      <g id="Group_18" data-name="Group 18">
        <path id="Path_25" data-name="Path 25" d="M31.509,70.561a20.542,20.542,0,1,1,29.051,0A20.571,20.571,0,0,1,31.509,70.561Z" transform="translate(-24.286 -34.284)" fill="#ffd740"/>
        <path id="Path_26" data-name="Path 26" d="M46.75,37.417A19.333,19.333,0,1,1,27.417,56.75,19.356,19.356,0,0,1,46.75,37.417m0-2.417A21.75,21.75,0,1,0,68.5,56.75,21.75,21.75,0,0,0,46.75,35Z" transform="translate(-25 -35)" fill="#fdd835"/>
      </g>
      <path id="Path_27" data-name="Path 27" d="M29.029,66.664a21.039,21.039,0,0,1,28.843-27.1c0-.225,0-.45.017-.674A21.09,21.09,0,0,0,28.251,66.766,6.917,6.917,0,0,1,29.029,66.664Z" transform="translate(-23.875 -33.887)" fill="#fff"/>
      <g id="Group_19" data-name="Group 19" transform="translate(4.833 4.833)">
        <path id="Path_28" data-name="Path 28" d="M43.208,68.917A15.708,15.708,0,1,1,58.917,53.208,15.726,15.726,0,0,1,43.208,68.917Z" transform="translate(-26.292 -36.292)" fill="#ffe57f"/>
        <path id="Path_29" data-name="Path 29" d="M43.917,39.417a14.5,14.5,0,1,1-14.5,14.5,14.515,14.515,0,0,1,14.5-14.5m0-2.417A16.917,16.917,0,1,0,60.833,53.917,16.923,16.923,0,0,0,43.917,37Z" transform="translate(-27 -37)" fill="#ffc400"/>
      </g>
      <path id="Path_31" data-name="Path 31" d="M46.75,37.417A19.333,19.333,0,1,1,27.417,56.75,19.356,19.356,0,0,1,46.75,37.417m0-2.417A21.75,21.75,0,1,0,68.5,56.75,21.75,21.75,0,0,0,46.75,35Z" transform="translate(-25 -35)" fill="#ffc400"/>
      <circle id="Ellipse_3" data-name="Ellipse 3" cx="5.5" cy="5.5" r="5.5" transform="translate(16.5 15.833)" fill="#ffc400"/>
    </g>
    <g id="Group_22" data-name="Group 22" transform="translate(7.417 93.833)">
      <rect id="Rectangle_37" data-name="Rectangle 37" width="43.5" height="9.667" fill="#ffd740"/>
      <rect id="Rectangle_38" data-name="Rectangle 38" width="21.75" height="9.667" fill="#ffe57f"/>
      <rect id="Rectangle_39" data-name="Rectangle 39" width="43.5" height="2.417" transform="translate(0 7.25)" fill="#ffc400"/>
      <rect id="Rectangle_40" data-name="Rectangle 40" width="2.417" height="7.25" transform="translate(2.417)" fill="#fff"/>
      <rect id="Rectangle_41" data-name="Rectangle 41" width="2.417" height="7.25" transform="translate(26.583)" fill="#ffc400"/>
      <rect id="Rectangle_42" data-name="Rectangle 42" width="2.417" height="7.25" transform="translate(31.417)" fill="#ffc400"/>
      <rect id="Rectangle_43" data-name="Rectangle 43" width="2.417" height="7.25" transform="translate(36.25)" fill="#ffc400"/>
      <rect id="Rectangle_44" data-name="Rectangle 44" width="2.417" height="7.25" transform="translate(41.083)" fill="#ffc400"/>
    </g>
    <g id="Group_23" data-name="Group 23" transform="translate(5 84.167)">
      <rect id="Rectangle_45" data-name="Rectangle 45" width="43.5" height="9.667" fill="#ffd740"/>
      <rect id="Rectangle_46" data-name="Rectangle 46" width="21.75" height="9.667" fill="#ffe57f"/>
      <rect id="Rectangle_47" data-name="Rectangle 47" width="43.5" height="2.417" transform="translate(0 7.25)" fill="#ffc400"/>
      <rect id="Rectangle_48" data-name="Rectangle 48" width="2.417" height="7.25" transform="translate(2.417)" fill="#fff"/>
      <rect id="Rectangle_49" data-name="Rectangle 49" width="2.417" height="7.25" transform="translate(26.583)" fill="#ffc400"/>
      <rect id="Rectangle_50" data-name="Rectangle 50" width="2.417" height="7.25" transform="translate(31.417)" fill="#ffc400"/>
      <rect id="Rectangle_51" data-name="Rectangle 51" width="2.417" height="7.25" transform="translate(36.25)" fill="#ffc400"/>
      <rect id="Rectangle_52" data-name="Rectangle 52" width="2.417" height="7.25" transform="translate(41.083)" fill="#ffc400"/>
    </g>
    <g id="Group_27" data-name="Group 27" transform="translate(6.833 31.5)">
      <g id="Group_24" data-name="Group 24">
        <path id="Path_32" data-name="Path 32" d="M12.509,66.561a20.542,20.542,0,1,1,29.051,0A20.571,20.571,0,0,1,12.509,66.561Z" transform="translate(-5.286 -30.284)" fill="#ffd740"/>
        <path id="Path_33" data-name="Path 33" d="M27.75,33.417A19.333,19.333,0,1,1,8.417,52.75,19.356,19.356,0,0,1,27.75,33.417m0-2.417A21.75,21.75,0,1,0,49.5,52.75,21.75,21.75,0,0,0,27.75,31Z" transform="translate(-6 -31)" fill="#fdd835"/>
      </g>
      <path id="Path_34" data-name="Path 34" d="M10.032,62.666A21.039,21.039,0,0,1,38.875,35.56c0-.225,0-.45.017-.674A21.09,21.09,0,0,0,9.251,62.765,7.565,7.565,0,0,1,10.032,62.666Z" transform="translate(-4.875 -29.888)" fill="#fff"/>
      <g id="Group_25" data-name="Group 25" transform="translate(4.833 4.833)">
        <path id="Path_35" data-name="Path 35" d="M24.208,64.917A15.708,15.708,0,1,1,39.917,49.208,15.726,15.726,0,0,1,24.208,64.917Z" transform="translate(-7.292 -32.292)" fill="#ffe57f"/>
        <path id="Path_36" data-name="Path 36" d="M24.917,35.417a14.5,14.5,0,1,1-14.5,14.5,14.515,14.515,0,0,1,14.5-14.5m0-2.417A16.917,16.917,0,1,0,41.833,49.917,16.923,16.923,0,0,0,24.917,33Z" transform="translate(-8 -33)" fill="#ffc400"/>
      </g>
      <path id="Path_38" data-name="Path 38" d="M27.75,33.417A19.333,19.333,0,1,1,8.417,52.75,19.356,19.356,0,0,1,27.75,33.417m0-2.417A21.75,21.75,0,1,0,49.5,52.75,21.75,21.75,0,0,0,27.75,31Z" transform="translate(-6 -31)" fill="#ffc400"/>
    </g>
    <circle id="Ellipse_2" data-name="Ellipse 2" cx="6.5" cy="6.5" r="6.5" transform="translate(21.833 46.5)" fill="#ffc400"/>
  </g>
</svg>
