<svg xmlns="http://www.w3.org/2000/svg" width="17" height="13.6" viewBox="0 0 17 13.6">
  <g id="ic_followers" transform="translate(0 -3)">
    <g id="Group_10" data-name="Group 10" transform="translate(3.967 5.267)">
      <path id="Path_14" data-name="Path 14" d="M12.667,14.516v-.954s.889-.838.953-1.409a1.161,1.161,0,0,0,.464-.894c0-.4-.177-.458-.177-.458a2.978,2.978,0,0,0,.319-1.184c0-1.159-.581-2.05-1.558-2.05A1.5,1.5,0,0,0,11.533,7,2.531,2.531,0,0,0,8.771,9.564a2.341,2.341,0,0,0,.39,1.237s-.177.087-.177.458a.882.882,0,0,0,.464.894c.065.571.953,1.409.953,1.409v.954C9.923,15.947,7,15,7,18.333h9.067C16.067,14.993,13.144,15.947,12.667,14.516Z" transform="translate(-7 -7)" fill="#343434"/>
    </g>
    <g id="Group_11" data-name="Group 11" transform="translate(10.767 3)">
      <path id="Path_15" data-name="Path 15" d="M20.558,7.884a3.581,3.581,0,0,1-.2,1.127,2.08,2.08,0,0,1,.061.515A4.856,4.856,0,0,1,19,12.321c.308.134,1.292.635,1.694.879h4.539c0-2.975-2.416-2.125-2.833-3.4V8.95A2.18,2.18,0,0,0,23.092,7.7.811.811,0,0,0,23.533,7c0-.322-.1-.457-.191-.509a2.562,2.562,0,0,0,.191-.941c0-1.032-.279-1.983-1.133-1.983A1.163,1.163,0,0,0,21.267,3a2.2,2.2,0,0,0-2.22,2A3.148,3.148,0,0,1,20.558,7.884Z" transform="translate(-19 -3)" fill="#343434"/>
    </g>
    <g id="Group_12" data-name="Group 12" transform="translate(0 3)">
      <path id="Path_16" data-name="Path 16" d="M6.233,12.289a4.893,4.893,0,0,1-.913-1.327,1.453,1.453,0,0,1-.787-.737V9.654a3.971,3.971,0,0,0,.537-.05A4.175,4.175,0,0,1,4.6,7.83,3.544,3.544,0,0,1,6.053,4.872,2.2,2.2,0,0,0,3.741,3a1.32,1.32,0,0,0-.907.567C-.133,3.567,1.5,8.3.632,9a2.827,2.827,0,0,0,2.2.661v.566C2.373,11.426,0,10.983,0,13.2H4.546C4.945,12.959,6.233,12.289,6.233,12.289Z" transform="translate(0 -3)" fill="#343434"/>
    </g>
  </g>
</svg>
