<svg id="_x37__stroke" xmlns="http://www.w3.org/2000/svg" xmlns:xlink="http://www.w3.org/1999/xlink" width="25" height="25" viewBox="0 0 25 25">
  <defs>
    <radialGradient id="radial-gradient" cx="3.733" cy="25.087" r="31.944" gradientUnits="userSpaceOnUse">
      <stop offset="0" stop-color="#ffb140"/>
      <stop offset="0.256" stop-color="#ff5445"/>
      <stop offset="0.599" stop-color="#fc2b82"/>
      <stop offset="1" stop-color="#8e40b7"/>
    </radialGradient>
  </defs>
  <g id="Instagram_1_">
    <rect id="Rectangle_10" data-name="Rectangle 10" width="25" height="25" fill="none"/>
    <path id="Instagram" d="M20.672,5.828a1.5,1.5,0,1,1-1.5-1.5A1.5,1.5,0,0,1,20.672,5.828ZM12.5,16.667A4.167,4.167,0,1,1,16.667,12.5,4.167,4.167,0,0,1,12.5,16.667Zm0-10.586A6.419,6.419,0,1,0,18.919,12.5,6.419,6.419,0,0,0,12.5,6.081Zm0-3.829c3.338,0,3.733.013,5.051.073a6.915,6.915,0,0,1,2.321.43,3.873,3.873,0,0,1,1.437.935,3.87,3.87,0,0,1,.935,1.437,6.92,6.92,0,0,1,.43,2.321c.06,1.318.073,1.713.073,5.051s-.013,3.733-.073,5.051a6.915,6.915,0,0,1-.43,2.321,4.141,4.141,0,0,1-2.372,2.372,6.92,6.92,0,0,1-2.321.43c-1.318.06-1.713.073-5.051.073s-3.733-.013-5.051-.073a6.915,6.915,0,0,1-2.321-.43A3.873,3.873,0,0,1,3.69,21.31a3.873,3.873,0,0,1-.935-1.437,6.92,6.92,0,0,1-.43-2.321c-.06-1.318-.073-1.713-.073-5.051s.013-3.733.073-5.051a6.915,6.915,0,0,1,.43-2.321A3.873,3.873,0,0,1,3.69,3.691a3.87,3.87,0,0,1,1.437-.935,6.92,6.92,0,0,1,2.321-.43C8.767,2.265,9.162,2.252,12.5,2.252ZM12.5,0C9.105,0,8.679.014,7.346.075A9.175,9.175,0,0,0,4.312.656,6.125,6.125,0,0,0,2.1,2.1,6.125,6.125,0,0,0,.656,4.312,9.176,9.176,0,0,0,.075,7.346C.014,8.679,0,9.105,0,12.5s.014,3.821.075,5.154a9.176,9.176,0,0,0,.581,3.034A6.125,6.125,0,0,0,2.1,22.9a6.128,6.128,0,0,0,2.214,1.442,9.176,9.176,0,0,0,3.034.581C8.679,24.986,9.105,25,12.5,25s3.821-.014,5.154-.075a9.176,9.176,0,0,0,3.034-.581,6.392,6.392,0,0,0,3.656-3.656,9.176,9.176,0,0,0,.581-3.034c.061-1.333.075-1.759.075-5.154s-.014-3.821-.075-5.154a9.176,9.176,0,0,0-.581-3.034A6.128,6.128,0,0,0,22.9,2.1,6.128,6.128,0,0,0,20.688.656,9.176,9.176,0,0,0,17.654.075C16.321.014,15.895,0,12.5,0Z" fill-rule="evenodd" fill="url(#radial-gradient)"/>
  </g>
</svg>
