<svg xmlns="http://www.w3.org/2000/svg" viewBox="0 0 208.495 18.434">
  <g id="logo" transform="translate(-29.7 -31.8)">
    <path id="Path_3" data-name="Path 3" d="M55.64,31.9V50.248l-7.1-5.061v.23a4.627,4.627,0,0,1-4.63,4.63H34.33a4.627,4.627,0,0,1-4.63-4.63V36.731a4.627,4.627,0,0,1,4.63-4.63h9.576a4.627,4.627,0,0,1,4.63,4.63v.23Z" transform="translate(0 -0.071)" fill="#f48665"/>
    <g id="Group_1" data-name="Group 1" transform="translate(222.09 31.858)">
      <path id="Path_4" data-name="Path 4" d="M705.631,32H698.7V50.319h6.931a9.054,9.054,0,0,0,6.672-2.473A9.556,9.556,0,0,0,714.8,41C714.718,36.86,712.274,32,705.631,32Zm5.694,14.925a7.6,7.6,0,0,1-5.665,2.186H700.08V33.15h5.579c5.263,0,7.707,3.882,7.822,7.765A8.264,8.264,0,0,1,711.325,46.925Z" transform="translate(-698.7 -32)" fill="#f48665"/>
    </g>
    <path id="Path_5" data-name="Path 5" d="M185.961,36.933,179.979,44.9h-.69L173.451,36.9V50.248H170V31.9h3.969l5.752,7.88,5.752-7.88h3.969V50.248h-3.451V36.933Z" transform="translate(-99.953 -0.071)" fill="#f48665"/>
    <g id="Group_2" data-name="Group 2" transform="translate(92.45 31.829)">
      <path id="Path_6" data-name="Path 6" d="M247.9,31.9V50.248h2.933V31.9Z" transform="translate(-247.9 -31.9)" fill="#f48665"/>
    </g>
    <g id="Group_3" data-name="Group 3" transform="translate(98.201 31.858)">
      <path id="Path_7" data-name="Path 7" d="M281.817,46.063a7.152,7.152,0,0,1-4.573,1.725c-4.831,0-6.614-3.508-6.643-6.528a6.874,6.874,0,0,1,1.869-4.86,6.532,6.532,0,0,1,4.745-1.812,6.756,6.756,0,0,1,4.4,1.582l1.812-1.725A8.959,8.959,0,0,0,277.216,32a9.249,9.249,0,0,0-6.729,2.531A9.407,9.407,0,0,0,267.9,41.26c.029,4.17,2.5,9.059,9.318,9.059a9.383,9.383,0,0,0,6.442-2.387Z" transform="translate(-267.898 -32)" fill="#f48665"/>
    </g>
    <g id="Group_4" data-name="Group 4" transform="translate(115.887 31.858)">
      <path id="Path_8" data-name="Path 8" d="M339.235,43.676l.834-.173a5.278,5.278,0,0,0,4.486-5.579c0-2.9-1.984-5.9-6.471-5.924H329.4V50.348h2.674V43.877h4.2l5.608,6.442h3.25Zm-7.161-2.128V34.416h6.01a3.573,3.573,0,1,1,0,7.132Z" transform="translate(-329.4 -32)" fill="#f48665"/>
    </g>
    <g id="Group_5" data-name="Group 5" transform="translate(132.366 31.829)">
      <path id="Path_9" data-name="Path 9" d="M402.172,34.373a8.83,8.83,0,0,0-6.413-2.473c-6.212,0-9.059,4.8-9.059,9.26,0,4.515,2.789,9.059,9.059,9.059,6.557,0,8.944-4.889,9-9.087A9.524,9.524,0,0,0,402.172,34.373Zm-6.413,13.8c-4.831,0-6.643-3.739-6.729-6.931v-.2a7.476,7.476,0,0,1,1.984-5.234,6.524,6.524,0,0,1,4.774-1.869,6.4,6.4,0,0,1,4.688,1.812,7.5,7.5,0,0,1,1.984,5.435C402.4,44.41,400.619,48.177,395.759,48.177Z" transform="translate(-386.7 -31.9)" fill="#f48665"/>
    </g>
    <g id="Group_6" data-name="Group 6" transform="translate(152.151 31.858)">
      <path id="Path_10" data-name="Path 10" d="M468.211,41.519l-1.869-.575,1.783-.805A3.262,3.262,0,0,0,470.253,37c0-4.342-3.825-5-6.1-5H455.5V50.348h8.656c4.486,0,6.672-1.668,6.672-5.09A4.041,4.041,0,0,0,468.211,41.519Zm-10.5-7.621h6.442c2.818,0,3.854,1.9,3.854,3.163,0,.863-.374,2.847-3.854,2.847h-6.442Zm6.471,14.408h-6.442V41.749h6.442c1.783,0,4.457,1.093,4.457,3.451C468.614,47.5,466.227,48.306,464.185,48.306Z" transform="translate(-455.5 -32)" fill="#f48665"/>
    </g>
    <g id="Group_7" data-name="Group 7" transform="translate(169.377 31.886)">
      <path id="Path_11" data-name="Path 11" d="M524.6,43.6l1.467-.288a5.051,5.051,0,0,0,4.371-5.435c0-2.847-1.984-5.752-6.356-5.78H515.4V50.448h2.071V43.689h4.889l5.867,6.7h2.387Zm-7.132-1.582V33.854h6.614a4.088,4.088,0,1,1,0,8.167Z" transform="translate(-515.4 -32.1)" fill="#f48665"/>
    </g>
    <g id="Group_8" data-name="Group 8" transform="translate(185.338 31.858)">
      <path id="Path_12" data-name="Path 12" d="M582,32h-2.876L570.9,50.319h1.956l1.754-3.825h11.935l1.725,3.825h1.984Zm-6.758,12.912,5.292-12.165,5.291,12.165Z" transform="translate(-570.9 -32)" fill="#f48665"/>
    </g>
    <g id="Group_9" data-name="Group 9" transform="translate(205.037 31.8)">
      <path id="Path_13" data-name="Path 13" d="M652.657,31.8V46.754L640.867,31.829H639.4V50.176h1.61v-16.1l12.51,16.1h.748V31.8Z" transform="translate(-639.4 -31.8)" fill="#f48665"/>
    </g>
  </g>
</svg>
